<?xml version="1.0" encoding="UTF-8"?><svg xmlns="http://www.w3.org/2000/svg" xmlns:xlink="http://www.w3.org/1999/xlink" fill-opacity="1" color-rendering="auto" color-interpolation="auto" text-rendering="auto" stroke="black" stroke-linecap="square" width="548" stroke-miterlimit="10" shape-rendering="auto" stroke-opacity="1" fill="black" stroke-dasharray="none" font-weight="normal" stroke-width="1" height="244" font-family="'Dialog'" font-style="normal" stroke-linejoin="miter" font-size="12px" stroke-dashoffset="0" image-rendering="auto">
  <!--Generated by ySVG 2.5-->
  <defs id="genericDefs"/>
  <g>
    <defs id="defs1">
      <clipPath clipPathUnits="userSpaceOnUse" id="clipPath1">
        <path d="M0 0 L548 0 L548 244 L0 244 L0 0 Z"/>
      </clipPath>
      <clipPath clipPathUnits="userSpaceOnUse" id="clipPath2">
        <path d="M-97 -95 L451 -95 L451 149 L-97 149 L-97 -95 Z"/>
      </clipPath>
    </defs>
    <g fill="white" text-rendering="geometricPrecision" shape-rendering="geometricPrecision" transform="translate(97,95)" stroke="white">
      <rect x="-97" width="548" height="244" y="-95" clip-path="url(#clipPath2)" stroke="none"/>
    </g>
    <g fill="rgb(246,246,246)" text-rendering="geometricPrecision" shape-rendering="geometricPrecision" transform="matrix(1,0,0,1,97,95)" stroke="rgb(246,246,246)">
      <rect x="166.9101" width="268.4232" height="183" y="-79.6505" clip-path="url(#clipPath2)" stroke="none"/>
    </g>
    <g font-size="18px" stroke-linecap="butt" transform="matrix(1,0,0,1,97,95)" text-rendering="geometricPrecision" font-family="sans-serif" shape-rendering="geometricPrecision" font-style="italic" stroke-miterlimit="1.45">
      <text x="226.0895" xml:space="preserve" y="-55.5538" clip-path="url(#clipPath2)" stroke="none">Desktop Computer</text>
      <rect fill="none" x="166.9101" width="268.4232" height="183" y="-79.6505" clip-path="url(#clipPath2)"/>
    </g>
    <g fill="rgb(246,246,246)" text-rendering="geometricPrecision" shape-rendering="geometricPrecision" transform="matrix(1,0,0,1,97,95)" stroke="rgb(246,246,246)">
      <rect x="-69.6984" width="198.6944" height="183" y="-79.6505" clip-path="url(#clipPath2)" stroke="none"/>
    </g>
    <g font-size="18px" stroke-linecap="butt" transform="matrix(1,0,0,1,97,95)" text-rendering="geometricPrecision" font-family="sans-serif" shape-rendering="geometricPrecision" font-style="italic" stroke-miterlimit="1.45">
      <text x="5.1449" xml:space="preserve" y="-55.5538" clip-path="url(#clipPath2)" stroke="none">FPGA</text>
      <rect fill="none" x="-69.6984" width="198.6944" height="183" y="-79.6505" clip-path="url(#clipPath2)"/>
    </g>
    <g fill="rgb(255,255,153)" text-rendering="geometricPrecision" shape-rendering="geometricPrecision" transform="matrix(1,0,0,1,97,95)" stroke="rgb(255,255,153)">
      <rect x="-48.3512" width="156" height="50" y="-3.4898" clip-path="url(#clipPath2)" stroke="none"/>
    </g>
    <g font-size="16px" stroke-linecap="butt" transform="matrix(1,0,0,1,97,95)" text-rendering="geometricPrecision" font-family="sans-serif" shape-rendering="geometricPrecision" stroke-miterlimit="1.45">
      <text x="-26.3903" xml:space="preserve" y="17.9946" clip-path="url(#clipPath2)" stroke="none">Lane Detection </text>
      <text x="-8.5856" xml:space="preserve" y="37.5961" clip-path="url(#clipPath2)" stroke="none">&amp; Tracking</text>
      <rect fill="none" x="-48.3512" width="156" height="50" y="-3.4898" clip-path="url(#clipPath2)"/>
    </g>
    <g fill="rgb(255,255,153)" text-rendering="geometricPrecision" shape-rendering="geometricPrecision" transform="matrix(1,0,0,1,97,95)" stroke="rgb(255,255,153)">
      <rect x="189.5" width="87" height="50" y="-3.4898" clip-path="url(#clipPath2)" stroke="none"/>
    </g>
    <g font-size="16px" stroke-linecap="butt" transform="matrix(1,0,0,1,97,95)" text-rendering="geometricPrecision" font-family="sans-serif" shape-rendering="geometricPrecision" stroke-miterlimit="1.45">
      <text x="212.1133" xml:space="preserve" y="27.7954" clip-path="url(#clipPath2)" stroke="none">ADTF</text>
      <rect fill="none" x="189.5" width="87" height="50" y="-3.4898" clip-path="url(#clipPath2)"/>
    </g>
    <g fill="rgb(255,255,153)" text-rendering="geometricPrecision" shape-rendering="geometricPrecision" transform="matrix(1,0,0,1,97,95)" stroke="rgb(255,255,153)">
      <rect x="326.1111" width="87" height="50" y="-3.4898" clip-path="url(#clipPath2)" stroke="none"/>
    </g>
    <g font-size="16px" stroke-linecap="butt" transform="matrix(1,0,0,1,97,95)" text-rendering="geometricPrecision" font-family="sans-serif" shape-rendering="geometricPrecision" stroke-miterlimit="1.45">
      <text x="353.6111" xml:space="preserve" y="27.7954" clip-path="url(#clipPath2)" stroke="none">VTD</text>
      <rect fill="none" x="326.1111" width="87" height="50" y="-3.4898" clip-path="url(#clipPath2)"/>
      <text x="-32.9688" xml:space="preserve" y="123.8339" clip-path="url(#clipPath2)" font-weight="bold" stroke="none">SUT (LDW ECU)</text>
      <text x="246.4961" xml:space="preserve" y="123.8339" clip-path="url(#clipPath2)" font-weight="bold" stroke="none">HIL Simulator</text>
      <path fill="none" d="M29.6488 -3.4761 L29.6488 -22.4898 L222.6667 -22.4898 L222.6667 -11.4729" clip-path="url(#clipPath2)"/>
      <path d="M222.6667 -3.4729 L227.6667 -15.4729 L222.6667 -12.4729 L217.6667 -15.4729 Z" stroke="none" clip-path="url(#clipPath2)"/>
      <text x="52.6584" xml:space="preserve" font-size="12px" y="-25.1265" clip-path="url(#clipPath2)" stroke="none">Detection</text>
      <text x="60.3342" xml:space="preserve" font-size="12px" y="-10.4253" clip-path="url(#clipPath2)" stroke="none">results</text>
      <path fill="none" d="M222.6389 46.4904 L222.6389 68.5102 L29.6488 68.5102 L29.6488 54.5102" clip-path="url(#clipPath2)"/>
      <path d="M29.6488 46.5102 L24.6488 58.5102 L29.6488 55.5102 L34.6488 58.5102 Z" stroke="none" clip-path="url(#clipPath2)"/>
      <text x="46.0017" xml:space="preserve" font-size="12px" y="81.7518" clip-path="url(#clipPath2)" stroke="none">Image ROI</text>
      <path fill="none" d="M233 -3.4898 L233 -22.2398 L371 -22.2398 L370.6586 -11.4858" clip-path="url(#clipPath2)"/>
      <path d="M370.4048 -3.4898 L375.783 -15.3251 L370.6903 -12.4853 L365.7881 -15.6424 Z" stroke="none" clip-path="url(#clipPath2)"/>
      <text x="249.9194" xml:space="preserve" font-size="12px" y="-26.7273" clip-path="url(#clipPath2)" stroke="none">Steering commands</text>
      <path fill="none" d="M369.6111 46.5102 L369.6111 67.5102 L233 67.5102 L233 54.5102" clip-path="url(#clipPath2)"/>
      <path d="M233 46.5102 L228 58.5102 L233 55.5102 L238 58.5102 Z" stroke="none" clip-path="url(#clipPath2)"/>
      <text x="244.1871" xml:space="preserve" font-size="12px" y="80.1685" clip-path="url(#clipPath2)" stroke="none">Dashboard camera image</text>
    </g>
  </g>
</svg>
